STARTFONT 2.1
COMMENT CDDL HEADER START
COMMENT
COMMENT The contents of this file are subject to the terms of the
COMMENT Common Development and Distribution License (the "License").
COMMENT You may not use this file except in compliance with the License.
COMMENT
COMMENT You can obtain a copy of the license at src/OPENSOLARIS.LICENSE
COMMENT or http://www.opensolaris.org/os/licensing.
COMMENT See the License for the specific language governing permissions
COMMENT and limitations under the License.
COMMENT
COMMENT When distributing Covered Code, include this CDDL HEADER in each
COMMENT file and include the License file at src/OPENSOLARIS.LICENSE.
COMMENT If applicable, add the following below this CDDL HEADER, with the
COMMENT fields enclosed by brackets "[]" replaced with your own identifying
COMMENT information: Portions Copyright [yyyy] [name of copyright owner]
COMMENT
COMMENT CDDL HEADER END
COMMENT
COMMENT Copyright (c) 1998-2001 by Sun Microsystems, Inc.
COMMENT All rights reserved.
COMMENT
COMMENT "@(#)splmt14.bdf	1.10 01/08/15 SMI"
COMMENT 
FONT -sun-supplement-medium-r-normal--14-140-75-75-p-140-unicode-fontspecific
SIZE 14 72 72
FONTBOUNDINGBOX 14 14 0 -3
STARTPROPERTIES 19
FONTNAME_REGISTRY ""
FOUNDRY "sun"
FAMILY_NAME "supplement"
WEIGHT_NAME "medium"
SLANT "R"
SETWIDTH_NAME "normal"
ADD_STYLE_NAME ""
PIXEL_SIZE 14
POINT_SIZE 140
RESOLUTION_X 75
RESOLUTION_Y 75
SPACING "P"
AVERAGE_WIDTH 140
CHARSET_REGISTRY "unicode"
CHARSET_ENCODING "fontspecific"
DEFAULT_CHAR 0
FONT_DESCENT 3
FONT_ASCENT 13
COPYRIGHT "Copyright (c) 1998-2001 by Sun Microsystems, Inc."
ENDPROPERTIES
CHARS 24
STARTCHAR notdefined
ENCODING 0
SWIDTH 500 0
DWIDTH 7 0
BBX 7 13 0 -3
BITMAP
0000
4800
9200
2400
4800
9200
2400
4800
9200
2400
4800
0000
0000
ENDCHAR
STARTCHAR no_half
ENCODING 1
SWIDTH 500 0
DWIDTH 7 0
BBX 7 13 0 -3
BITMAP
0000
fe00
c600
aa00
aa00
9200
9200
aa00
aa00
c600
fe00
0000
0000
ENDCHAR
STARTCHAR no_full
ENCODING 2
SWIDTH 1000 0
DWIDTH 14 0
BBX 14 13 0 -3
BITMAP
0000
7ff8
7038
4848
4488
4308
4308
4488
5868
6018
7ff8
0000
0000
ENDCHAR
STARTCHAR euro_20ac
ENCODING 3
SWIDTH 500 0
DWIDTH 7 0
BBX 7 13 0 -3
BITMAP
0000
0000
1c00
2200
4000
fc00
4000
f800
4000
2200
1c00
0000
0000
ENDCHAR
STARTCHAR replcmnt_fffd
ENCODING 4
SWIDTH 500 0
DWIDTH 7 0
BBX 7 13 0 -3
BITMAP
0000
1000
3800
4400
5400
f600
ee00
6c00
7c00
2800
1000
0000
0000
ENDCHAR
STARTCHAR OE_0152
ENCODING 5
SWIDTH 500 0
DWIDTH 7 0
BBX 7 13 0 -3
BITMAP
0000
7e00
9000
9000
9000
9e00
9000
9000
9000
9000
7e00
0000
0000
ENDCHAR
STARTCHAR oe_0153
ENCODING 6
SWIDTH 500 0
DWIDTH 7 0
BBX 7 13 0 -3
BITMAP
0000
0000
0000
0000
6c00
9200
9200
9e00
9000
9200
6c00
0000
0000
ENDCHAR
STARTCHAR Yumlaut_0178
ENCODING 7
SWIDTH 500 0
DWIDTH 7 0
BBX 7 13 0 -3
BITMAP
2800
2800
0000
4400
4400
2800
2800
1000
1000
1000
1000
0000
0000
ENDCHAR
STARTCHAR Ccircumflex_0108
ENCODING 8
SWIDTH 500 0
DWIDTH 7 0
BBX 7 13 0 -1
BITMAP
1800
2400
0000
1c00
2400
4000
4000
4000
4000
4000
2000
1c00
0000
ENDCHAR
STARTCHAR ccircumflex_0109
ENCODING 9
SWIDTH 500 0
DWIDTH 7 0
BBX 7 13 0 -2
BITMAP
0000
1800
2400
0000
1c00
2000
4000
4000
4000
2000
1c00
0000
0000
ENDCHAR
STARTCHAR Cdotabove_010a
ENCODING 10
SWIDTH 500 0
DWIDTH 7 0
BBX 7 13 0 -1
BITMAP
1000
1000
0000
1c00
2400
4000
4000
4000
4000
4000
2000
1c00
0000
ENDCHAR
STARTCHAR cdotabove_010b
ENCODING 11
SWIDTH 500 0
DWIDTH 7 0
BBX 7 13 0 -2
BITMAP
0000
1000
1000
0000
1c00
2000
4000
4000
4000
2000
1c00
0000
0000
ENDCHAR
STARTCHAR Gcircumflex_011c
ENCODING 12
SWIDTH 500 0
DWIDTH 7 0
BBX 7 13 0 -1
BITMAP
1800
2400
0000
1c00
2400
4000
4000
4000
4400
4400
2400
1c00
0000
ENDCHAR
STARTCHAR gcircumflex_011d
ENCODING 13
SWIDTH 500 0
DWIDTH 7 0
BBX 7 13 0 -2
BITMAP
0000
1800
2400
0000
3c00
4400
4400
4400
4c00
3400
0400
0400
3800
ENDCHAR
STARTCHAR Gdotabove_0120
ENCODING 14
SWIDTH 500 0
DWIDTH 7 0
BBX 7 13 0 -1
BITMAP
1000
1000
0000
1c00
2400
4000
4000
4000
4400
4400
2400
1c00
0000
ENDCHAR
STARTCHAR gdotabove_0121
ENCODING 15
SWIDTH 500 0
DWIDTH 7 0
BBX 7 13 0 -2
BITMAP
0000
1000
1000
0000
3c00
4400
4400
4400
4c00
3400
0400
0400
3800
ENDCHAR
STARTCHAR Hcircumflex_0124
ENCODING 16
SWIDTH 500 0
DWIDTH 7 0
BBX 7 13 0 -1
BITMAP
1800
2400
0000
4400
4400
4400
4400
7c00
4400
4400
4400
4400
0000
ENDCHAR
STARTCHAR hcircumflex_0125
ENCODING 17
SWIDTH 500 0
DWIDTH 7 0
BBX 7 13 0 -1
BITMAP
1800
2400
0000
4000
4000
5800
6400
4400
4400
4400
4400
4400
0000
ENDCHAR
STARTCHAR Jcircumflex_0134
ENCODING 18
SWIDTH 500 0
DWIDTH 7 0
BBX 7 13 0 -1
BITMAP
1800
2400
0000
7c00
1000
1000
1000
1000
1000
1000
1000
e000
0000
ENDCHAR
STARTCHAR jcircumflex_0135
ENCODING 19
SWIDTH 500 0
DWIDTH 7 0
BBX 7 13 0 -2
BITMAP
0000
1800
2400
0000
7800
0800
0800
0800
0800
0800
0800
0800
7000
ENDCHAR
STARTCHAR Scircumflex_015c
ENCODING 20
SWIDTH 500 0
DWIDTH 7 0
BBX 7 13 0 -1
BITMAP
1800
2400
0000
3c00
4000
4000
6000
3800
0c00
0400
0400
7800
0000
ENDCHAR
STARTCHAR scircumflex_015d
ENCODING 21
SWIDTH 500 0
DWIDTH 7 0
BBX 7 13 0 -2
BITMAP
0000
1800
2400
0000
3c00
4000
4000
3800
0400
0400
7800
0000
0000
ENDCHAR
STARTCHAR Ubreve_016c
ENCODING 22
SWIDTH 500 0
DWIDTH 7 0
BBX 7 13 0 -1
BITMAP
4400
3800
0000
4400
4400
4400
4400
4400
4400
4400
4400
3800
0000
ENDCHAR
STARTCHAR ubreve_016d
ENCODING 23
SWIDTH 500 0
DWIDTH 7 0
BBX 7 13 0 -2
BITMAP
0000
4400
3800
0000
4400
4400
4400
4400
4400
4c00
3400
0000
0000
ENDCHAR
ENDFONT
